<?xml version="1.0" standalone="no"?>
<!DOCTYPE svg PUBLIC "-//W3C//DTD SVG 20010904//EN"
 "http://www.w3.org/TR/2001/REC-SVG-20010904/DTD/svg10.dtd">
<svg version="1.0" xmlns="http://www.w3.org/2000/svg"
 width="40.000000pt" height="40.000000pt" viewBox="0 0 40.000000 40.000000"
 preserveAspectRatio="xMidYMid meet">

<g transform="translate(0.000000,40.000000) scale(0.100000,-0.100000)"
fill="#000000" stroke="none">
<path d="M66 318 c-4 -24 -13 -57 -22 -72 -12 -24 -12 -31 -2 -38 21 -13 42
-4 49 22 4 15 7 18 8 8 1 -21 37 -43 46 -28 3 5 12 7 20 4 8 -4 12 -10 9 -15
-3 -6 0 -17 7 -25 6 -8 9 -17 5 -21 -3 -3 -6 0 -7 8 0 8 -9 -11 -19 -41 -20
-59 -19 -70 11 -70 12 0 19 7 19 20 0 11 5 20 10 20 6 0 10 -7 10 -15 0 -21
27 -30 45 -15 10 9 15 9 15 1 0 -6 16 -11 38 -11 37 0 38 0 53 58 9 31 18 63
20 70 2 8 -4 19 -14 25 -20 14 -67 -7 -75 -33 -4 -11 2 -9 19 5 18 15 16 11
-6 -16 -30 -35 -30 -35 -45 -15 -18 26 -16 96 5 155 20 59 20 61 -19 61 -27 0
-39 -7 -61 -36 l-28 -37 -11 34 c-9 28 -17 35 -42 37 -30 3 -32 1 -38 -40z
m134 -8 c-17 -22 -34 -40 -37 -40 -2 0 10 18 27 40 17 22 34 40 37 40 2 0 -10
-18 -27 -40z"/>
</g>
</svg>
